<svg viewBox="0 0 400 260" xmlns="http://www.w3.org/2000/svg" aria-hidden="true">

  <rect x="30" y="20" width="260" height="200" rx="10" fill="#0a1a2a" stroke="#1a3550" stroke-width="1.2"/>
  <rect x="30" y="20" width="260" height="28" rx="10" fill="#0d2035"/>
  <rect x="30" y="36" width="260" height="12" fill="#0d2035"/>
  <circle cx="48" cy="34" r="4" fill="#1e3a52"/>
  <circle cx="62" cy="34" r="4" fill="#1e3a52"/>
  <circle cx="76" cy="34" r="4" fill="#1e3a52"/>
  <rect x="94" y="27" width="140" height="14" rx="4" fill="#0a1520" stroke="#1a3550" stroke-width="0.8"/>
  <rect x="99" y="31" width="60" height="4" rx="2" fill="#1a3a55" opacity="0.7"/>

  <rect x="30" y="48" width="60" height="172" fill="#081525"/>
  <rect x="38" y="60" width="44" height="8" rx="3" fill="#00d4ff" fill-opacity="0.15"/>
  <rect x="42" y="62" width="28" height="4" rx="2" fill="#00d4ff" fill-opacity="0.6"/>
  <rect x="42" y="76" width="22" height="4" rx="2" fill="#1a3a55"/>
  <rect x="42" y="90" width="26" height="4" rx="2" fill="#1a3a55"/>
  <rect x="42" y="104" width="20" height="4" rx="2" fill="#1a3a55"/>
  <line x1="90" y1="48" x2="90" y2="220" stroke="#1a3550" stroke-width="0.8"/>

  <rect x="98" y="56" width="88" height="72" rx="6" fill="#0d2035" stroke="#1a3550" stroke-width="0.8"/>
  <rect x="106" y="63" width="72" height="38" rx="4" fill="#0a1a2a" stroke="#1e3f5a" stroke-width="0.8"/>
  <rect x="124" y="72" width="18" height="16" rx="2" fill="#00d4ff" fill-opacity="0.2" stroke="#00d4ff" stroke-width="0.8" stroke-opacity="0.5"/>
  <rect x="127" y="75" width="4" height="4" rx="1" fill="#00d4ff" fill-opacity="0.6"/>
  <rect x="133" y="75" width="4" height="4" rx="1" fill="#00d4ff" fill-opacity="0.6"/>
  <rect x="127" y="81" width="4" height="4" rx="1" fill="#00d4ff" fill-opacity="0.6"/>
  <rect x="133" y="81" width="4" height="4" rx="1" fill="#00d4ff" fill-opacity="0.6"/>
  <rect x="106" y="106" width="50" height="4" rx="2" fill="#ffffff" fill-opacity="0.7"/>
  <rect x="106" y="114" width="32" height="4" rx="2" fill="#00d4ff" fill-opacity="0.6"/>
  <rect x="158" y="112" width="22" height="10" rx="3" fill="#00d4ff" fill-opacity="0.2" stroke="#00d4ff" stroke-width="0.6" stroke-opacity="0.5"/>
  <rect x="162" y="115" width="14" height="3" rx="1" fill="#00d4ff" fill-opacity="0.7"/>

  <rect x="194" y="56" width="88" height="72" rx="6" fill="#0d2035" stroke="#1a3550" stroke-width="0.8"/>
  <rect x="202" y="63" width="72" height="38" rx="4" fill="#0a1a2a" stroke="#1e3f5a" stroke-width="0.8"/>
  <rect x="220" y="72" width="18" height="16" rx="2" fill="#00d4ff" fill-opacity="0.15" stroke="#00d4ff" stroke-width="0.8" stroke-opacity="0.5"/>
  <rect x="223" y="75" width="12" height="3" rx="1" fill="#00d4ff" fill-opacity="0.5"/>
  <rect x="223" y="80" width="12" height="3" rx="1" fill="#00d4ff" fill-opacity="0.5"/>
  <rect x="223" y="85" width="8" height="3" rx="1" fill="#00d4ff" fill-opacity="0.5"/>
  <rect x="202" y="106" width="50" height="4" rx="2" fill="#ffffff" fill-opacity="0.7"/>
  <rect x="202" y="114" width="32" height="4" rx="2" fill="#00d4ff" fill-opacity="0.5"/>
  <rect x="254" y="112" width="22" height="10" rx="3" fill="#00d4ff" fill-opacity="0.15" stroke="#00d4ff" stroke-width="0.6" stroke-opacity="0.5"/>
  <rect x="258" y="115" width="14" height="3" rx="1" fill="#00d4ff" fill-opacity="0.6"/>

  <rect x="98" y="136" width="88" height="60" rx="6" fill="#0d2035" stroke="#1a3550" stroke-width="0.8"/>
  <rect x="106" y="143" width="72" height="30" rx="4" fill="#0a1a2a" stroke="#1e3f5a" stroke-width="0.8"/>
  <rect x="106" y="178" width="40" height="4" rx="2" fill="#ffffff" fill-opacity="0.5"/>
  <rect x="106" y="186" width="26" height="4" rx="2" fill="#00d4ff" fill-opacity="0.4"/>

  <rect x="194" y="136" width="88" height="60" rx="6" fill="#0d2035" stroke="#1a3550" stroke-width="0.8"/>
  <rect x="202" y="143" width="72" height="30" rx="4" fill="#0a1a2a" stroke="#1e3f5a" stroke-width="0.8"/>
  <rect x="202" y="178" width="40" height="4" rx="2" fill="#ffffff" fill-opacity="0.5"/>
  <rect x="202" y="186" width="26" height="4" rx="2" fill="#00d4ff" fill-opacity="0.4"/>

  <rect x="308" y="50" width="72" height="50" rx="8" fill="#0d2035" stroke="#00d4ff" stroke-width="1" stroke-opacity="0.4"/>
  <rect x="316" y="58" width="30" height="4" rx="2" fill="#4a7a9a" opacity="0.6"/>
  <rect x="316" y="66" width="56" height="6" rx="2" fill="#00d4ff" opacity="0.7"/>
  <rect x="316" y="76" width="20" height="4" rx="2" fill="#4a7a9a" opacity="0.4"/>
  <rect x="316" y="84" width="40" height="8" rx="3" fill="#00d4ff" fill-opacity="0.15" stroke="#00d4ff" stroke-width="0.6" stroke-opacity="0.5"/>
  <rect x="320" y="87" width="24" height="3" rx="1" fill="#00d4ff" fill-opacity="0.7"/>
  <line x1="308" y1="75" x2="292" y2="100" stroke="#00d4ff" stroke-width="0.8" stroke-dasharray="3,4" opacity="0.25"/>

  <rect x="315" y="120" width="72" height="36" rx="8" fill="#0d2035" stroke="#00d4ff" stroke-width="1" stroke-opacity="0.3"/>
  <rect x="323" y="128" width="24" height="4" rx="2" fill="#4a7a9a" opacity="0.6"/>
  <rect x="323" y="136" width="55" height="5" rx="2" fill="#00a8cc" opacity="0.6"/>
  <rect x="323" y="144" width="36" height="5" rx="2" fill="#00a8cc" opacity="0.3"/>
  <line x1="315" y1="138" x2="290" y2="145" stroke="#00d4ff" stroke-width="0.8" stroke-dasharray="3,4" opacity="0.2"/>

  <polygon points="355,172 367,179 367,193 355,200 343,193 343,179" fill="none" stroke="#00d4ff" stroke-width="1.2" opacity="0.8"/>
  <polygon points="355,176 364,181 364,190 355,195 346,190 346,181" fill="#00d4ff" fill-opacity="0.06"/>
  <line x1="349" y1="181" x2="361" y2="181" stroke="#00d4ff" stroke-width="1.5" stroke-linecap="round" opacity="0.8"/>
  <line x1="355" y1="181" x2="355" y2="191" stroke="#00d4ff" stroke-width="1.5" stroke-linecap="round" opacity="0.8"/>

  <circle cx="360" cy="220" r="2.5" fill="#00d4ff" opacity="0.25"/>
  <circle cx="372" cy="232" r="2" fill="#00d4ff" opacity="0.15"/>
  <line x1="360" y1="220" x2="372" y2="232" stroke="#00d4ff" stroke-width="0.7" stroke-dasharray="2,3" opacity="0.15"/>
  <circle cx="22" cy="140" r="2.5" fill="#00d4ff" opacity="0.25"/>
  <circle cx="22" cy="155" r="2" fill="#00d4ff" opacity="0.15"/>
  <line x1="22" y1="140" x2="22" y2="155" stroke="#00d4ff" stroke-width="0.7" stroke-dasharray="2,4" opacity="0.15"/>

</svg>
